# xmcd
#
# Track frame offsets:
#	150
#	16797
#	34793
#	48328
#	65614
#	83451
#	97214
#	111912
#	127504
#	142184
#
# Disc length: 2137 seconds
#
# Revision: 0
# Processed by: cddbd v1.5.1PL2 Copyright (c) Steve Scherf et al.
# Submitted via: dBpowerAMP V4.0
#
DISCID=7d08570a
DTITLE=Frank Fisher - Erlebte Gefühle
DYEAR=1900
DGENRE=Pop
TTITLE0=Es war die Nacht von Acapulco
TTITLE1=Sie lebt an meiner Seite
TTITLE2=Komm und tanz mit mir
TTITLE3=Herzlich willkommen..
TTITLE4=Das hab ich nicht gewollt
TTITLE5=Liebe ist ein Glück auf Zeit
TTITLE6=Pizza 27
TTITLE7=Das Lächeln des Glücks
TTITLE8=Du ich hab dich gesehn
TTITLE9=Dein Leben
EXTD=
EXTT0=
EXTT1=
EXTT2=
EXTT3=
EXTT4=
EXTT5=
EXTT6=
EXTT7=
EXTT8=
EXTT9=
PLAYORDER=
